# xmcd
#
# Track frame offsets: 
#        150
#        18725
#        40162
#        63480
#        79847
#        101987
#        141660
#        160375
#        174220
#        192315
#        234705
#
# Disc length: 3413 seconds
#
# Revision: 0
# Processed by: cddbd v1.5.2PL0 Copyright (c) Steve Scherf et al.
# Submitted via: ExactAudioCopy v0.95a5
#
DISCID=9d0d530b
DTITLE=Geb Rault - Ying Yang From the Mire
DYEAR=1997
DGENRE=Blues
TTITLE0=Be Free
TTITLE1=Been Down
TTITLE2=A Time in the Line
TTITLE3=Once Would Suffice
TTITLE4=The Pisser
TTITLE5=Have You Ever Loved a Woman
TTITLE6=If You Only Knew
TTITLE7=Can You Hear Me Calling
TTITLE8=Long Time Gone
TTITLE9=Geb's Blues
TTITLE10=I'm a Healer
EXTD=
EXTT0=
EXTT1=
EXTT2=
EXTT3=
EXTT4=
EXTT5=
EXTT6=
EXTT7=
EXTT8=
EXTT9=
EXTT10=
PLAYORDER=
